<svg width="172" height="58" viewBox="0 0 172 58" fill="none" xmlns="http://www.w3.org/2000/svg">
<path d="M26.28 34.28C26.3067 34.44 26.32 34.6 26.32 34.76C26.3467 34.8933 26.36 35.0533 26.36 35.24C26.36 35.56 26.2667 35.8533 26.08 36.12C26 36.2533 25.8933 36.3867 25.76 36.52C25.6267 36.6267 25.4667 36.72 25.28 36.8C24.6133 37.1733 23.9067 37.3067 23.16 37.2C22.7867 37.0933 22.4533 36.92 22.16 36.68C22.1067 36.6267 22.0667 36.6 22.04 36.6C22.0133 36.5733 21.9867 36.5333 21.96 36.48C21.9333 36.4533 21.9067 36.4267 21.88 36.4C21.8533 36.3467 21.8133 36.3067 21.76 36.28C21.6267 36.1467 21.52 36.0267 21.44 35.92C21.36 35.7867 21.28 35.6533 21.2 35.52C21.1467 35.3867 21.08 35.2667 21 35.16C20.9467 35.0267 20.88 34.8933 20.8 34.76C20.7467 34.6533 20.6933 34.56 20.64 34.48C20.5867 34.3733 20.5467 34.2667 20.52 34.16C20.4133 33.92 20.3467 33.7067 20.32 33.52L19.48 31.56C17.64 31.56 15.8 31.5733 13.96 31.6C12.1467 31.6 10.32 31.5867 8.48 31.56L7.64 33.52C7.58667 33.6267 7.54667 33.7333 7.52 33.84C7.52 33.9467 7.49333 34.0533 7.44 34.16C7.38667 34.2667 7.33333 34.3733 7.28 34.48C7.25333 34.56 7.21333 34.6533 7.16 34.76C7.08 34.8933 7 35.0267 6.92 35.16C6.86667 35.2667 6.8 35.3867 6.72 35.52C6.66667 35.6533 6.6 35.7867 6.52 35.92C6.44 36.0267 6.33333 36.1467 6.2 36.28C6.14667 36.3067 6.10667 36.3467 6.08 36.4C6.05333 36.4267 6.02667 36.4533 6 36.48C5.97333 36.5333 5.94667 36.5733 5.92 36.6C5.89333 36.6 5.85333 36.6267 5.8 36.68C5.50667 36.92 5.17333 37.0933 4.8 37.2C4.05333 37.3067 3.34667 37.1733 2.68 36.8C2.49333 36.72 2.33333 36.6267 2.2 36.52C2.06667 36.3867 1.96 36.2533 1.88 36.12C1.69333 35.8533 1.6 35.56 1.6 35.24C1.6 35.0533 1.6 34.8933 1.6 34.76C1.62667 34.6 1.65333 34.44 1.68 34.28C1.73333 34.04 1.8 33.8 1.88 33.56C1.96 33.32 2 33.2 2 33.2L10.32 12.72L10.56 12.08C10.6133 11.92 10.68 11.7733 10.76 11.64C10.84 11.5067 10.9067 11.3467 10.96 11.16C11.0933 10.8133 11.24 10.5067 11.4 10.24C11.48 10.08 11.5733 9.93333 11.68 9.8C11.7867 9.66666 11.8933 9.53333 12 9.4C12.16 9.18667 12.3867 9.01333 12.68 8.88C13.0533 8.74667 13.48 8.68 13.96 8.68C14.4667 8.68 14.9067 8.74667 15.28 8.88C15.5733 9.01333 15.8 9.18667 15.96 9.4C16.1467 9.64 16.3467 9.92 16.56 10.24C16.72 10.5067 16.8667 10.8133 17 11.16C17.0533 11.3467 17.12 11.5067 17.2 11.64C17.28 11.7733 17.3467 11.92 17.4 12.08L17.64 12.72L25.96 33.2C25.96 33.2 26 33.32 26.08 33.56C26.16 33.8 26.2267 34.04 26.28 34.28ZM16.8 24.48C16.4533 23.7067 16.0933 22.9067 15.72 22.08C15.3733 21.2533 15 20.4133 14.6 19.56C14.4933 19.32 14.3867 19.08 14.28 18.84C14.1733 18.5733 14.0667 18.32 13.96 18.08C13.88 18.32 13.7867 18.5733 13.68 18.84C13.5733 19.08 13.4667 19.32 13.36 19.56C12.96 20.4133 12.5733 21.2533 12.2 22.08C11.8533 22.9067 11.5067 23.7067 11.16 24.48L10.44 26.24H17.52L16.8 24.48ZM29.6088 22.72C29.6088 22.1067 29.5954 21.4533 29.5688 20.76C29.5688 20.0667 29.6888 19.44 29.9288 18.88C30.1421 18.3733 30.4888 18.0133 30.9688 17.8C31.4754 17.56 31.9688 17.5067 32.4488 17.64C32.9288 17.72 33.3021 17.8667 33.5688 18.08C33.8354 18.2933 34.0221 18.5467 34.1288 18.84C34.2621 19.1067 34.3421 19.4267 34.3688 19.8C34.3954 20.1467 34.4221 20.4933 34.4488 20.84C34.7154 20.36 35.0488 19.9733 35.4488 19.68C35.8488 19.3867 36.2621 19.1467 36.6888 18.96C37.1154 18.7733 37.5154 18.64 37.8888 18.56C38.2888 18.48 38.5954 18.44 38.8088 18.44C39.8221 18.44 40.8221 18.6667 41.8088 19.12C42.8221 19.5467 43.6621 20.16 44.3288 20.96C44.7021 21.44 44.9821 21.9467 45.1688 22.48C45.3821 22.9867 45.5288 23.52 45.6088 24.08C45.7154 24.64 45.7821 25.2133 45.8088 25.8C45.8354 26.36 45.8621 26.9333 45.8888 27.52C46.0221 29.2267 46.0221 30.92 45.8888 32.6C45.8621 32.9467 45.8488 33.3467 45.8488 33.8C45.8488 34.2533 45.8088 34.7067 45.7288 35.16C45.6754 35.5867 45.5554 35.9733 45.3688 36.32C45.2088 36.64 44.9288 36.84 44.5288 36.92C43.9688 37.0533 43.5021 37.08 43.1288 37C42.7821 36.9467 42.5021 36.8267 42.2888 36.64C42.0754 36.4533 41.9154 36.2133 41.8088 35.92C41.7021 35.6267 41.6088 35.2933 41.5288 34.92C41.4754 34.6267 41.4221 34.2933 41.3688 33.92C41.3421 33.52 41.3154 33.12 41.2888 32.72C41.2888 32.32 41.2754 31.9333 41.2488 31.56C41.2488 31.16 41.2488 30.8 41.2488 30.48C41.2488 29.9733 41.2354 29.4133 41.2088 28.8C41.1821 28.1867 41.1821 27.6133 41.2088 27.08C41.2088 25.8267 40.8754 24.88 40.2088 24.24C39.5688 23.5733 38.6888 23.2933 37.5688 23.4C36.7154 23.5067 35.9688 23.8533 35.3288 24.44C34.6888 25 34.3821 25.7333 34.4088 26.64C34.4088 26.9867 34.4088 27.3067 34.4088 27.6C34.4088 27.8933 34.3954 28.1867 34.3688 28.48C34.3688 28.7733 34.3688 29.0933 34.3688 29.44C34.3688 29.7867 34.3688 30.1733 34.3688 30.6C34.3688 31.48 34.3688 32.4133 34.3688 33.4C34.3688 34.36 34.2488 35.1467 34.0088 35.76C33.7954 36.4 33.4354 36.84 32.9288 37.08C32.4221 37.32 31.8221 37.2533 31.1288 36.88C30.8354 36.72 30.5954 36.5067 30.4088 36.24C30.2488 35.9467 30.1154 35.64 30.0088 35.32C29.9288 35 29.8754 34.68 29.8488 34.36C29.8221 34.0133 29.7954 33.6933 29.7688 33.4C29.6888 32.52 29.6354 31.7067 29.6088 30.96C29.6088 30.1867 29.6088 29.36 29.6088 28.48V22.72ZM54.2572 21.84C54.2572 22.5867 54.2572 23.4267 54.2572 24.36C54.2839 25.2933 54.2972 26.2667 54.2972 27.28C54.2972 28.2667 54.2972 29.2533 54.2972 30.24C54.2972 31.2 54.2839 32.0933 54.2572 32.92C54.2305 33.32 54.1905 33.76 54.1372 34.24C54.0839 34.6933 53.9772 35.12 53.8172 35.52C53.6572 35.92 53.4039 36.2533 53.0572 36.52C52.7372 36.76 52.2972 36.8667 51.7372 36.84C50.9105 36.7867 50.3105 36.4267 49.9372 35.76C49.5905 35.0933 49.3905 34.16 49.3372 32.96C49.3372 32.3467 49.3239 31.64 49.2972 30.84C49.2972 30.04 49.2839 29.2267 49.2572 28.4C49.2572 27.5733 49.2572 26.7733 49.2572 26C49.2572 25.2 49.2572 24.48 49.2572 23.84C49.2572 23.4667 49.2439 23.0133 49.2172 22.48C49.2172 21.9467 49.2305 21.4 49.2572 20.84C49.2839 20.28 49.3505 19.7467 49.4572 19.24C49.5639 18.7067 49.7372 18.2667 49.9772 17.92C50.1639 17.7067 50.4305 17.5467 50.7772 17.44C51.1239 17.3067 51.4839 17.24 51.8572 17.24C52.2572 17.24 52.6305 17.3067 52.9772 17.44C53.3505 17.5733 53.6172 17.76 53.7772 18C53.8839 18.16 53.9639 18.3867 54.0172 18.68C54.0705 18.9733 54.1105 19.3067 54.1372 19.68C54.1905 20.0267 54.2172 20.4 54.2172 20.8C54.2439 21.1733 54.2572 21.52 54.2572 21.84ZM52.7372 13.76C51.9105 13.9733 51.2172 13.8933 50.6572 13.52C50.1239 13.12 49.7905 12.5333 49.6572 11.76C49.5505 11.2 49.5905 10.7067 49.7772 10.28C49.9639 9.85333 50.2439 9.53333 50.6172 9.32C50.9905 9.08 51.4172 8.97333 51.8972 9C52.3772 9.02666 52.8572 9.21333 53.3372 9.56C53.7905 9.88 54.1105 10.2533 54.2972 10.68C54.5105 11.1067 54.5772 11.52 54.4972 11.92C54.4439 12.32 54.2705 12.6933 53.9772 13.04C53.6839 13.36 53.2705 13.6 52.7372 13.76ZM79.4519 27.68C79.5052 28.5333 79.5319 29.3467 79.5319 30.12C79.5319 30.8667 79.5052 31.6667 79.4519 32.52C79.4519 32.84 79.4519 33.2 79.4519 33.6C79.4519 34 79.4252 34.3867 79.3719 34.76C79.3185 35.1333 79.2252 35.48 79.0919 35.8C78.9585 36.12 78.7585 36.3733 78.4919 36.56C78.1719 36.7733 77.8119 36.92 77.4119 37C77.0119 37.0533 76.6385 37.0267 76.2919 36.92C75.9452 36.8133 75.6385 36.6133 75.3719 36.32C75.1319 36.0267 74.9985 35.6133 74.9719 35.08C74.8919 33.8533 74.8519 32.6267 74.8519 31.4C74.8519 30.7867 74.8385 30.2 74.8119 29.64C74.8119 29.08 74.8252 28.2933 74.8519 27.28C74.8519 26.7733 74.8119 26.2 74.7319 25.56C74.6519 24.8933 74.4519 24.4267 74.1319 24.16C73.8919 23.9467 73.6252 23.8267 73.3319 23.8C73.0385 23.7467 72.7452 23.7733 72.4519 23.88C72.1852 23.9867 71.9452 24.1867 71.7319 24.48C71.5185 24.7467 71.3719 25.0933 71.2919 25.52C71.2919 25.8667 71.2785 26.2267 71.2519 26.6C71.2519 26.9467 71.2652 27.28 71.2919 27.6C71.3185 28.4533 71.3319 29.2667 71.3319 30.04C71.3319 30.7867 71.3185 31.5867 71.2919 32.44C71.2652 32.7867 71.2519 33.16 71.2519 33.56C71.2785 33.96 71.2785 34.36 71.2519 34.76C71.2252 35.1333 71.1452 35.48 71.0119 35.8C70.9052 36.12 70.7052 36.3733 70.4119 36.56C70.0919 36.7733 69.7452 36.9067 69.3719 36.96C69.0252 36.9867 68.6919 36.9333 68.3719 36.8C68.0785 36.64 67.8119 36.4 67.5719 36.08C67.3585 35.76 67.2385 35.3333 67.2119 34.8C67.1585 34.1867 67.1185 33.6267 67.0919 33.12C67.0919 32.5867 67.0919 32.0267 67.0919 31.44C67.0919 30.8267 67.1052 30.2 67.1319 29.56C67.1585 28.8933 67.1452 28.2533 67.0919 27.64C67.0919 27.4533 67.0785 27.24 67.0519 27C67.0519 26.7333 67.0385 26.4667 67.0119 26.2C67.0119 25.9333 66.9852 25.68 66.9319 25.44C66.9052 25.1733 66.8519 24.96 66.7719 24.8C66.5585 24.4267 66.1719 24.1867 65.6119 24.08C65.0785 23.9733 64.6252 24.0133 64.2519 24.2C63.8785 24.3867 63.5985 24.6267 63.4119 24.92C63.2252 25.2133 63.0919 25.5333 63.0119 25.88C62.9319 26.2267 62.8919 26.6 62.8919 27C62.8919 27.3733 62.8919 27.7333 62.8919 28.08C62.8919 29.8133 62.8919 31.32 62.8919 32.6C62.9185 33.8533 62.7852 34.8667 62.4919 35.64C62.3585 36.04 62.0785 36.3467 61.6519 36.56C61.2519 36.7733 60.8119 36.88 60.3319 36.88C59.8785 36.88 59.4519 36.7733 59.0519 36.56C58.6519 36.3467 58.3852 36.0133 58.2519 35.56C58.1719 35.2667 58.0919 34.8533 58.0119 34.32C57.9585 33.76 57.9185 33.1467 57.8919 32.48C57.8652 31.8133 57.8519 31.1467 57.8519 30.48C57.8519 29.7867 57.8519 29.16 57.8519 28.6V22.84C57.8252 22.2267 57.8119 21.56 57.8119 20.84C57.8119 20.12 57.9185 19.4667 58.1319 18.88C58.3185 18.3733 58.6119 18.0533 59.0119 17.92C59.4119 17.76 59.8252 17.6933 60.2519 17.72C60.7319 17.72 61.1052 17.8533 61.3719 18.12C61.6652 18.36 61.8785 18.6667 62.0119 19.04C62.1452 19.3867 62.2252 19.7867 62.2519 20.24C62.2785 20.6667 62.3052 21.08 62.3319 21.48C62.6252 20.8133 62.9719 20.2667 63.3719 19.84C63.7985 19.3867 64.3985 19.0933 65.1719 18.96C67.1452 18.5867 68.7185 19.0933 69.8919 20.48C70.4252 19.9467 71.1052 19.5067 71.9319 19.16C72.5719 18.92 73.2252 18.8133 73.8919 18.84C74.5585 18.84 75.1852 18.96 75.7719 19.2C76.3852 19.44 76.9319 19.7867 77.4119 20.24C77.9185 20.6933 78.3185 21.24 78.6119 21.88C79.0119 22.7333 79.2385 23.68 79.2919 24.72C79.3452 25.76 79.3985 26.7467 79.4519 27.68ZM96.5728 31.52C96.8928 31.44 97.2128 31.3867 97.5328 31.36C97.8795 31.3333 98.1861 31.3733 98.4528 31.48C98.7461 31.5867 98.9861 31.7733 99.1728 32.04C99.3595 32.28 99.4528 32.6267 99.4528 33.08C99.4528 33.4 99.3728 33.7067 99.2128 34C99.0528 34.2933 98.8528 34.56 98.6128 34.8C98.3728 35.04 98.1061 35.2533 97.8128 35.44C97.5195 35.6 97.2395 35.7333 96.9728 35.84C96.1995 36.1867 95.3061 36.4533 94.2928 36.64C93.3061 36.8267 92.2795 36.8933 91.2128 36.84C89.7728 36.7867 88.3861 36.5067 87.0528 36C85.7461 35.4667 84.7195 34.6 83.9728 33.4C83.2795 32.2267 82.8661 30.92 82.7328 29.48C82.5995 28.04 82.6661 26.68 82.9328 25.4C83.2261 23.8533 83.7195 22.6 84.4128 21.64C85.1328 20.6533 85.9861 19.8667 86.9728 19.28C88.1728 18.5867 89.5195 18.2267 91.0128 18.2C92.5061 18.1733 93.9328 18.4667 95.2928 19.08C96.1995 19.48 97.0128 20.0267 97.7328 20.72C98.4528 21.3867 98.9995 22.2 99.3728 23.16C99.4795 23.4 99.5595 23.6933 99.6128 24.04C99.6928 24.3867 99.7461 24.76 99.7728 25.16C99.7995 25.5333 99.7995 25.9067 99.7728 26.28C99.7461 26.6533 99.6795 26.9867 99.5728 27.28C99.4128 27.76 99.2128 28.1333 98.9728 28.4C98.7328 28.6667 98.4261 28.8667 98.0528 29C97.6795 29.1333 97.2261 29.2267 96.6928 29.28C96.1861 29.3067 95.5728 29.3333 94.8528 29.36C94.2128 29.3867 93.6128 29.4 93.0528 29.4C92.4928 29.4 91.9195 29.4 91.3328 29.4C90.7461 29.3733 90.1328 29.36 89.4928 29.36C88.8795 29.3333 88.1861 29.3067 87.4128 29.28C87.3328 29.8133 87.3995 30.28 87.6128 30.68C87.8528 31.0533 88.1728 31.3733 88.5728 31.64C88.9728 31.88 89.4261 32.0667 89.9328 32.2C90.4395 32.3333 90.9328 32.4133 91.4128 32.44C92.3195 32.4933 93.1861 32.4267 94.0128 32.24C94.8395 32.0267 95.6928 31.7867 96.5728 31.52ZM94.8528 23.76C94.3461 23.1733 93.8128 22.7467 93.2528 22.48C92.8261 22.2933 92.3728 22.2133 91.8928 22.24C91.4395 22.24 90.9995 22.3067 90.5728 22.44C89.7995 22.6267 89.1461 23.0267 88.6128 23.64C88.5595 23.6933 88.4661 23.8267 88.3328 24.04C88.1995 24.2267 88.0661 24.4267 87.9328 24.64C87.8261 24.8533 87.7461 25.0533 87.6928 25.24C87.6395 25.4267 87.6661 25.52 87.7728 25.52H95.6128C95.5861 25.1467 95.5195 24.84 95.4128 24.6C95.3061 24.3333 95.1195 24.0533 94.8528 23.76ZM118.766 22.24C119.54 22.7467 120.193 23.3467 120.726 24.04C121.286 24.7067 121.726 25.5333 122.046 26.52C122.393 27.6133 122.566 28.72 122.566 29.84C122.593 30.9333 122.393 31.96 121.966 32.92C121.566 33.8533 120.913 34.68 120.006 35.4C119.126 36.0933 117.966 36.5867 116.526 36.88C115.753 37.0667 114.846 37.2133 113.806 37.32C112.766 37.4267 111.833 37.48 111.006 37.48C109.966 37.5067 108.886 37.5067 107.766 37.48C106.673 37.48 105.606 37.3733 104.566 37.16C104.113 37.0267 103.78 36.8 103.566 36.48C103.38 36.1333 103.246 35.7467 103.166 35.32C103.06 35.08 103.006 34.84 103.006 34.6V11.88C103.006 11.1333 103.153 10.56 103.446 10.16C103.766 9.73333 104.18 9.42667 104.686 9.24C105.193 9.02667 105.766 8.90667 106.406 8.88C107.046 8.82667 107.713 8.8 108.406 8.8C108.94 8.8 109.473 8.8 110.006 8.8C110.566 8.77333 111.126 8.77333 111.686 8.8C112.566 8.82666 113.473 8.90666 114.406 9.04C115.366 9.14666 116.273 9.36 117.126 9.68C117.526 9.81333 117.953 10 118.406 10.24C118.86 10.4533 119.22 10.72 119.486 11.04C120.34 11.8133 120.966 12.72 121.366 13.76C121.793 14.7733 121.98 15.8133 121.926 16.88C121.873 17.92 121.58 18.92 121.046 19.88C120.54 20.84 119.78 21.6267 118.766 22.24ZM111.766 32.84C112.593 32.7867 113.433 32.6933 114.286 32.56C115.14 32.4267 115.726 32.1733 116.046 31.8C116.393 31.3733 116.633 30.88 116.766 30.32C116.926 29.7333 116.966 29.1467 116.886 28.56C116.833 27.9467 116.66 27.3733 116.366 26.84C116.1 26.28 115.74 25.84 115.286 25.52C114.673 25.04 113.966 24.7333 113.166 24.6C112.366 24.44 111.58 24.36 110.806 24.36C110.433 24.36 110.086 24.3733 109.766 24.4C109.473 24.4 109.206 24.44 108.966 24.52C108.753 24.5733 108.593 24.6933 108.486 24.88C108.38 25.0667 108.326 25.3467 108.326 25.72C108.38 26.4133 108.38 27.1067 108.326 27.8C108.273 28.4933 108.246 29.16 108.246 29.8C108.246 30.1733 108.233 30.5867 108.206 31.04C108.206 31.4667 108.353 31.8267 108.646 32.12C108.94 32.4133 109.366 32.6133 109.926 32.72C110.486 32.8267 111.1 32.8667 111.766 32.84ZM112.566 13.64C111.74 13.6133 111.046 13.6 110.486 13.6C109.953 13.5733 109.526 13.6133 109.206 13.72C108.913 13.8 108.7 14 108.566 14.32C108.46 14.6133 108.42 15.0667 108.446 15.68C108.446 16.1867 108.433 16.6933 108.406 17.2C108.406 17.68 108.406 18.16 108.406 18.64C108.406 19.1733 108.58 19.5733 108.926 19.84C109.273 20.08 109.7 20.2267 110.206 20.28C110.74 20.3333 111.286 20.3333 111.846 20.28C112.433 20.2267 112.94 20.16 113.366 20.08C114.326 19.92 115.06 19.6 115.566 19.12C116.1 18.6133 116.406 17.88 116.486 16.92C116.593 15.72 116.273 14.8933 115.526 14.44C114.806 13.96 113.82 13.6933 112.566 13.64ZM130.432 18.92C131.312 18.4933 132.232 18.1867 133.192 18C134.152 17.8133 135.099 17.7733 136.032 17.88C136.992 17.9867 137.912 18.24 138.792 18.64C139.699 19.04 140.525 19.6 141.272 20.32C141.885 20.9333 142.419 21.68 142.872 22.56C143.325 23.4133 143.659 24.2533 143.872 25.08C144.325 26.5467 144.392 28.0267 144.072 29.52C143.752 31.0133 143.205 32.4 142.432 33.68C142.059 34.2667 141.592 34.8 141.032 35.28C140.499 35.7333 139.925 36.1067 139.312 36.4C138.512 36.7733 137.645 37.0267 136.712 37.16C135.779 37.32 134.872 37.36 133.992 37.28C132.392 37.2 130.979 36.8 129.752 36.08C128.552 35.36 127.579 34.44 126.832 33.32C126.112 32.2 125.632 30.9333 125.392 29.52C125.179 28.08 125.272 26.6133 125.672 25.12C126.099 23.52 126.712 22.2267 127.512 21.24C128.339 20.2267 129.312 19.4533 130.432 18.92ZM131.632 24.28C131.232 24.6533 130.925 25.12 130.712 25.68C130.499 26.24 130.365 26.8267 130.312 27.44C130.259 28.0267 130.299 28.6267 130.432 29.24C130.592 29.8267 130.832 30.36 131.152 30.84C131.419 31.24 131.899 31.5733 132.592 31.84C133.285 32.1067 134.005 32.2667 134.752 32.32C135.605 32.3733 136.352 32.1467 136.992 31.64C137.632 31.1067 138.112 30.4533 138.432 29.68C138.779 28.9067 138.939 28.0667 138.912 27.16C138.885 26.2533 138.645 25.4267 138.192 24.68C137.872 24.1467 137.419 23.76 136.832 23.52C136.272 23.2533 135.672 23.12 135.032 23.12C134.419 23.0933 133.805 23.1867 133.192 23.4C132.579 23.5867 132.059 23.88 131.632 24.28ZM169.019 33.32C169.313 33.8533 169.433 34.32 169.379 34.72C169.353 35.12 169.313 35.4533 169.259 35.72C169.179 36.0133 168.979 36.2667 168.659 36.48C168.366 36.6667 168.033 36.8133 167.659 36.92C167.179 37.0533 166.779 37.08 166.459 37C166.059 36.92 165.726 36.7867 165.459 36.6C165.299 36.4667 165.153 36.3467 165.019 36.24C164.886 36.1067 164.753 35.9867 164.619 35.88C164.486 35.7467 164.366 35.6267 164.259 35.52C164.153 35.4133 164.073 35.3067 164.019 35.2C163.966 35.0933 163.913 35.0267 163.859 35C163.833 34.9467 163.806 34.9067 163.779 34.88L158.459 27.2L153.179 34.88C153.153 34.9067 153.113 34.9467 153.059 35C153.033 35.0267 152.979 35.0933 152.899 35.2C152.846 35.3067 152.766 35.4133 152.659 35.52C152.579 35.6267 152.486 35.7467 152.379 35.88C152.246 35.9867 152.099 36.1067 151.939 36.24C151.779 36.3467 151.633 36.4667 151.499 36.6C151.339 36.7067 151.166 36.7867 150.979 36.84C150.819 36.8933 150.659 36.9467 150.499 37C150.153 37.08 149.779 37.0533 149.379 36.92C148.553 36.7333 147.979 36.3333 147.659 35.72C147.499 35.4 147.433 35.0667 147.459 34.72C147.486 34.3467 147.566 33.9733 147.699 33.6C147.859 33.2267 148.033 32.8667 148.219 32.52C148.433 32.1733 148.646 31.84 148.859 31.52C148.966 31.3867 149.059 31.2667 149.139 31.16C149.246 31.0533 149.353 30.9333 149.459 30.8C149.806 30.3467 150.139 29.8933 150.459 29.44C150.779 28.96 151.126 28.4533 151.499 27.92L155.219 22.52L149.739 14.6L149.259 13.92C149.153 13.76 149.046 13.6133 148.939 13.48C148.833 13.3467 148.726 13.1867 148.619 13C148.513 12.8667 148.406 12.72 148.299 12.56C148.193 12.4 148.099 12.2133 148.019 12C147.939 11.84 147.859 11.6933 147.779 11.56C147.726 11.4 147.673 11.2133 147.619 11C147.539 10.68 147.513 10.3867 147.539 10.12C147.619 9.77333 147.793 9.48 148.059 9.24C148.166 9.10666 148.286 9 148.419 8.92C148.579 8.84 148.726 8.76 148.859 8.68C149.126 8.57333 149.366 8.49333 149.579 8.44C149.793 8.38667 150.019 8.36 150.259 8.36C150.739 8.38667 151.193 8.56 151.619 8.88C152.153 9.22667 152.633 9.65333 153.059 10.16C153.246 10.4533 153.433 10.7333 153.619 11C153.806 11.24 154.006 11.4933 154.219 11.76L154.259 11.92C154.926 12.8 155.526 13.6533 156.059 14.48C156.619 15.28 157.233 16.1333 157.899 17.04C158.006 17.1733 158.099 17.3067 158.179 17.44C158.259 17.5733 158.353 17.7067 158.459 17.84C158.566 17.7067 158.659 17.5733 158.739 17.44C158.819 17.3067 158.913 17.1733 159.019 17.04C159.633 16.1333 160.219 15.28 160.779 14.48C161.366 13.6533 161.979 12.8 162.619 11.92L162.699 11.76C162.913 11.4933 163.113 11.24 163.299 11C163.513 10.7333 163.713 10.4533 163.899 10.16C164.326 9.65333 164.806 9.22667 165.339 8.88C165.739 8.56 166.193 8.38667 166.699 8.36C167.126 8.36 167.579 8.46667 168.059 8.68C168.379 8.86667 168.619 9.05333 168.779 9.24C169.099 9.48 169.299 9.77333 169.379 10.12C169.406 10.3867 169.379 10.68 169.299 11C169.246 11.2133 169.179 11.4 169.099 11.56C169.046 11.6933 168.953 11.84 168.819 12C168.659 12.4 168.486 12.7333 168.299 13C168.193 13.1867 168.086 13.3467 167.979 13.48C167.873 13.6133 167.779 13.76 167.699 13.92L167.219 14.6L161.699 22.52L165.419 27.92L167.579 30.96C167.819 31.36 168.059 31.7467 168.299 32.12C168.539 32.4933 168.779 32.8933 169.019 33.32Z" fill="white"/>
<g filter="url(#filter0_d_215_3)">
<path d="M54.5468 38.7236C115.52 58.426 136.991 55.7903 161.57 40.1506" stroke="#0B95FF" stroke-width="2" stroke-linecap="round"/>
</g>
<defs>
<filter id="filter0_d_215_3" x="49.5466" y="33.7233" width="117.024" height="23.971" filterUnits="userSpaceOnUse" color-interpolation-filters="sRGB">
<feFlood flood-opacity="0" result="BackgroundImageFix"/>
<feColorMatrix in="SourceAlpha" type="matrix" values="0 0 0 0 0 0 0 0 0 0 0 0 0 0 0 0 0 0 127 0" result="hardAlpha"/>
<feOffset/>
<feGaussianBlur stdDeviation="2"/>
<feComposite in2="hardAlpha" operator="out"/>
<feColorMatrix type="matrix" values="0 0 0 0 0.0431373 0 0 0 0 0.584314 0 0 0 0 1 0 0 0 0.6 0"/>
<feBlend mode="normal" in2="BackgroundImageFix" result="effect1_dropShadow_215_3"/>
<feBlend mode="normal" in="SourceGraphic" in2="effect1_dropShadow_215_3" result="shape"/>
</filter>
</defs>
</svg>
