<svg width="28" height="29" viewBox="0 0 28 29" fill="none" xmlns="http://www.w3.org/2000/svg">
<g clip-path="url(#clip0_10_114)">
<path fill-rule="evenodd" clip-rule="evenodd" d="M9.63153 13.544C9.42141 13.7633 9.30337 14.0607 9.30337 14.3708C9.30337 14.681 9.42141 14.9784 9.63153 15.1977L15.972 21.8138C16.0754 21.9255 16.199 22.0146 16.3358 22.0759C16.4725 22.1372 16.6196 22.1695 16.7684 22.1708C16.9173 22.1722 17.0648 22.1426 17.2026 22.0838C17.3403 22.025 17.4655 21.9381 17.5707 21.8283C17.6759 21.7185 17.7592 21.5879 17.8155 21.4442C17.8719 21.3005 17.9002 21.1465 17.8989 20.9912C17.8977 20.8359 17.8667 20.6824 17.808 20.5397C17.7493 20.397 17.6639 20.268 17.5568 20.1601L12.0088 14.3708L17.5568 8.58158C17.761 8.361 17.874 8.06557 17.8714 7.75892C17.8688 7.45227 17.751 7.15893 17.5432 6.94209C17.3354 6.72525 17.0542 6.60225 16.7604 6.59958C16.4665 6.59692 16.1834 6.7148 15.972 6.92784L9.63153 13.544Z" fill="#9397BA"/>
</g>
<defs>
<clipPath id="clip0_10_114">
<rect width="28.0691" height="26.8996" fill="white" transform="matrix(0 -1 -1 0 27.2362 28.4054)"/>
</clipPath>
</defs>
</svg>
