<svg width="27" height="29" viewBox="0 0 27 29" fill="none" xmlns="http://www.w3.org/2000/svg">
<g clip-path="url(#clip0_10_110)">
<path fill-rule="evenodd" clip-rule="evenodd" d="M17.652 13.241C17.8629 13.4595 17.982 13.7565 17.9831 14.0667C17.9843 14.3768 17.8673 14.6746 17.658 14.8947L11.3413 21.5336C11.2383 21.6456 11.115 21.7352 10.9784 21.797C10.8419 21.8587 10.695 21.8915 10.5461 21.8934C10.3973 21.8953 10.2496 21.8662 10.1117 21.8079C9.97372 21.7496 9.84827 21.6632 9.74264 21.5538C9.637 21.4444 9.55331 21.3141 9.49644 21.1705C9.43957 21.027 9.41066 20.8731 9.41139 20.7178C9.41213 20.5625 9.4425 20.4089 9.50073 20.266C9.55895 20.1231 9.64387 19.9938 9.75054 19.8855L15.2777 14.0764L9.70895 8.30708C9.504 8.08723 9.38996 7.79221 9.39142 7.48556C9.39287 7.1789 9.50969 6.88514 9.71672 6.66755C9.92375 6.44996 10.2044 6.32595 10.4983 6.32223C10.7921 6.31851 11.0757 6.43538 11.2878 6.64766L17.652 13.241Z" fill="#9397BA"/>
</g>
<defs>
<clipPath id="clip0_10_110">
<rect width="28.0691" height="26.8996" fill="white" transform="translate(0.10083 28.1655) rotate(-90.2058)"/>
</clipPath>
</defs>
</svg>
