<svg width="23" height="23" viewBox="0 0 23 23" fill="none" xmlns="http://www.w3.org/2000/svg">
<g clip-path="url(#clip0_5_15)">
<path d="M20.6041 3.83333H18.5278V5.11111H20.4444V19.1667H2.55553V5.11111H4.4722V3.83333H2.39581C2.24646 3.83583 2.09907 3.86772 1.96204 3.92719C1.82502 3.98666 1.70106 4.07254 1.59724 4.17992C1.49341 4.28731 1.41176 4.41409 1.35694 4.55304C1.30212 4.69199 1.27521 4.84037 1.27775 4.98972V19.2881C1.27521 19.4374 1.30212 19.5858 1.35694 19.7247C1.41176 19.8637 1.49341 19.9905 1.59724 20.0979C1.70106 20.2052 1.82502 20.2911 1.96204 20.3506C2.09907 20.4101 2.24646 20.4419 2.39581 20.4444H20.6041C20.7535 20.4419 20.9009 20.4101 21.0379 20.3506C21.1749 20.2911 21.2989 20.2052 21.4027 20.0979C21.5065 19.9905 21.5882 19.8637 21.643 19.7247C21.6978 19.5858 21.7247 19.4374 21.7222 19.2881V4.98972C21.7247 4.84037 21.6978 4.69199 21.643 4.55304C21.5882 4.41409 21.5065 4.28731 21.4027 4.17992C21.2989 4.07254 21.1749 3.98666 21.0379 3.92719C20.9009 3.86772 20.7535 3.83583 20.6041 3.83333Z" fill="#9397BA"/>
<path d="M5.11108 8.94444H6.38886V10.2222H5.11108V8.94444Z" fill="#9397BA"/>
<path d="M8.94446 8.94444H10.2222V10.2222H8.94446V8.94444Z" fill="#9397BA"/>
<path d="M12.7778 8.94444H14.0555V10.2222H12.7778V8.94444Z" fill="#9397BA"/>
<path d="M16.6111 8.94444H17.8889V10.2222H16.6111V8.94444Z" fill="#9397BA"/>
<path d="M5.11108 12.1389H6.38886V13.4167H5.11108V12.1389Z" fill="#9397BA"/>
<path d="M8.94446 12.1389H10.2222V13.4167H8.94446V12.1389Z" fill="#9397BA"/>
<path d="M12.7778 12.1389H14.0555V13.4167H12.7778V12.1389Z" fill="#9397BA"/>
<path d="M16.6111 12.1389H17.8889V13.4167H16.6111V12.1389Z" fill="#9397BA"/>
<path d="M5.11108 15.3333H6.38886V16.6111H5.11108V15.3333Z" fill="#9397BA"/>
<path d="M8.94446 15.3333H10.2222V16.6111H8.94446V15.3333Z" fill="#9397BA"/>
<path d="M12.7778 15.3333H14.0555V16.6111H12.7778V15.3333Z" fill="#9397BA"/>
<path d="M16.6111 15.3333H17.8889V16.6111H16.6111V15.3333Z" fill="#9397BA"/>
<path d="M6.38889 6.38889C6.55833 6.38889 6.72084 6.32158 6.84065 6.20176C6.96047 6.08195 7.02778 5.91944 7.02778 5.75V1.91667C7.02778 1.74722 6.96047 1.58472 6.84065 1.4649C6.72084 1.34509 6.55833 1.27778 6.38889 1.27778C6.21944 1.27778 6.05694 1.34509 5.93713 1.4649C5.81731 1.58472 5.75 1.74722 5.75 1.91667V5.75C5.75 5.91944 5.81731 6.08195 5.93713 6.20176C6.05694 6.32158 6.21944 6.38889 6.38889 6.38889Z" fill="#9397BA"/>
<path d="M16.6111 6.38889C16.7806 6.38889 16.9431 6.32158 17.0629 6.20176C17.1827 6.08195 17.25 5.91944 17.25 5.75V1.91667C17.25 1.74722 17.1827 1.58472 17.0629 1.4649C16.9431 1.34509 16.7806 1.27778 16.6111 1.27778C16.4417 1.27778 16.2792 1.34509 16.1594 1.4649C16.0395 1.58472 15.9722 1.74722 15.9722 1.91667V5.75C15.9722 5.91944 16.0395 6.08195 16.1594 6.20176C16.2792 6.32158 16.4417 6.38889 16.6111 6.38889Z" fill="#9397BA"/>
<path d="M8.30554 3.83333H14.6944V5.11111H8.30554V3.83333Z" fill="#9397BA"/>
</g>
<defs>
<clipPath id="clip0_5_15">
<rect width="23" height="23" fill="white"/>
</clipPath>
</defs>
</svg>
