<svg width="24" height="24" viewBox="0 0 24 24" fill="none" xmlns="http://www.w3.org/2000/svg">
<path d="M5 5H12V3H5C3.9 3 3 3.9 3 5V19C3 20.1 3.9 21 5 21H12V19H5V5Z" fill="#9397BA"/>
<path d="M16.375 12H9.625C9.415 12 9.25 11.78 9.25 11.5C9.25 11.22 9.415 11 9.625 11H16.375C16.585 11 16.75 11.22 16.75 11.5C16.75 11.78 16.585 12 16.375 12Z" fill="#9397BA"/>
<path d="M11.5 15.5C11.4508 15.5008 11.4021 15.4879 11.3568 15.462C11.3116 15.4362 11.271 15.398 11.2375 15.35L8.6125 11.85C8.4625 11.65 8.4625 11.34 8.6125 11.14L11.2375 7.65C11.3875 7.45 11.62 7.45 11.77 7.65C11.92 7.85 11.92 8.16 11.77 8.36L9.4075 11.51L11.77 14.66C11.92 14.86 11.92 15.17 11.77 15.37C11.695 15.47 11.5975 15.52 11.5075 15.52L11.5 15.5Z" fill="#9397BA"/>
</svg>
