<svg width="24" height="24" viewBox="0 0 24 24" fill="none" xmlns="http://www.w3.org/2000/svg">
<g clip-path="url(#clip0_3_62)">
<mask id="mask0_3_62" style="mask-type:luminance" maskUnits="userSpaceOnUse" x="0" y="0" width="24" height="24">
<path d="M0 0H24V24H0V0Z" fill="white"/>
</mask>
<g mask="url(#mask0_3_62)">
<path d="M8 10V14M6 12H10" stroke="#9397BA" stroke-linecap="round"/>
<path d="M16 10.5C16 10.7652 15.8946 11.0196 15.7071 11.2071C15.5196 11.3946 15.2652 11.5 15 11.5C14.7348 11.5 14.4804 11.3946 14.2929 11.2071C14.1054 11.0196 14 10.7652 14 10.5C14 10.2348 14.1054 9.98043 14.2929 9.79289C14.4804 9.60536 14.7348 9.5 15 9.5C15.2652 9.5 15.5196 9.60536 15.7071 9.79289C15.8946 9.98043 16 10.2348 16 10.5ZM18 13.5C18 13.7652 17.8946 14.0196 17.7071 14.2071C17.5196 14.3946 17.2652 14.5 17 14.5C16.7348 14.5 16.4804 14.3946 16.2929 14.2071C16.1054 14.0196 16 13.7652 16 13.5C16 13.2348 16.1054 12.9804 16.2929 12.7929C16.4804 12.6054 16.7348 12.5 17 12.5C17.2652 12.5 17.5196 12.6054 17.7071 12.7929C17.8946 12.9804 18 13.2348 18 13.5Z" fill="#9397BA"/>
<path d="M12 4V3C12 2.73478 12.1054 2.48043 12.2929 2.29289C12.4804 2.10536 12.7348 2 13 2H14C14.2652 2 14.5196 1.89464 14.7071 1.70711C14.8946 1.51957 15 1.26522 15 1V0M22 12C22 14.8 22 16.2 21.455 17.27C20.9756 18.2108 20.2108 18.9756 19.27 19.455C18.2 20 16.8 20 14 20H10C7.2 20 5.8 20 4.73 19.455C3.78923 18.9756 3.02436 18.2108 2.545 17.27C2 16.2 2 14.8 2 12C2 9.2 2 7.8 2.545 6.73C3.02436 5.78923 3.78923 5.02436 4.73 4.545C5.8 4 7.2 4 10 4H14C16.8 4 18.2 4 19.27 4.545C20.2108 5.02436 20.9756 5.78923 21.455 6.73C21.643 7.1 21.766 7.508 21.847 8" stroke="#9397BA" stroke-linecap="round"/>
</g>
</g>
<defs>
<clipPath id="clip0_3_62">
<rect width="24" height="24" fill="white"/>
</clipPath>
</defs>
</svg>
