<svg width="24" height="24" viewBox="0 0 24 24" fill="none" xmlns="http://www.w3.org/2000/svg">
<path d="M22.0669 9.23719C22.0004 9.02592 21.8722 8.83941 21.6988 8.70172C21.5253 8.56403 21.3146 8.48146 21.0937 8.46468L15.5203 7.98281C15.4525 7.97651 15.3878 7.95189 15.333 7.91159C15.2781 7.8713 15.2353 7.81684 15.209 7.75406L13.0312 2.565C12.9461 2.36088 12.8026 2.18651 12.6185 2.06385C12.4345 1.9412 12.2183 1.87575 11.9972 1.87575C11.776 1.87575 11.5598 1.9412 11.3758 2.06385C11.1918 2.18651 11.0482 2.36088 10.9631 2.565L8.78811 7.75406C8.76187 7.81684 8.71904 7.8713 8.66421 7.91159C8.60938 7.95189 8.54462 7.97651 8.47686 7.98281L2.90624 8.46468C2.68497 8.48283 2.47402 8.56603 2.29994 8.70382C2.12587 8.84161 1.99645 9.02783 1.92799 9.23902C1.85953 9.45021 1.85509 9.67693 1.91522 9.89064C1.97536 10.1044 2.09738 10.2955 2.26593 10.44L6.49405 14.1291C6.54685 14.1743 6.58603 14.2333 6.60722 14.2995C6.62842 14.3658 6.63078 14.4366 6.61405 14.5041L5.34374 19.9894C5.29139 20.2058 5.30512 20.433 5.38316 20.6415C5.4612 20.8501 5.59997 21.0305 5.78155 21.1594C5.95903 21.2904 6.17175 21.3652 6.3922 21.3741C6.61265 21.3829 6.83069 21.3255 7.01811 21.2091L11.8087 18.3028C11.8662 18.2674 11.9325 18.2486 12 18.2486C12.0675 18.2486 12.1337 18.2674 12.1912 18.3028L16.9819 21.2091C17.1712 21.3226 17.3898 21.3779 17.6104 21.368C17.831 21.3582 18.0438 21.2836 18.2223 21.1537C18.4008 21.0238 18.5371 20.8442 18.6143 20.6373C18.6915 20.4304 18.7061 20.2054 18.6562 19.9903L17.3887 14.5022C17.372 14.4347 17.3744 14.3639 17.3956 14.2977C17.4168 14.2314 17.4559 14.1724 17.5087 14.1272L21.7369 10.4381C21.9051 10.2935 22.0264 10.102 22.0852 9.88804C22.144 9.6741 22.1376 9.44747 22.0669 9.23719ZM21.2437 9.87469L17.0156 13.5637C16.8608 13.698 16.7457 13.8721 16.6825 14.067C16.6194 14.262 16.6108 14.4705 16.6575 14.67L17.925 20.1562C17.9427 20.229 17.9382 20.3053 17.9122 20.3755C17.8861 20.4457 17.8396 20.5065 17.7787 20.55C17.7203 20.5934 17.65 20.6181 17.5773 20.6209C17.5045 20.6238 17.4326 20.6046 17.3709 20.5659L12.5803 17.6597C12.4055 17.553 12.2047 17.4966 12 17.4966C11.7952 17.4966 11.5944 17.553 11.4197 17.6597L6.62905 20.5659C6.56736 20.6046 6.49544 20.6238 6.42268 20.6209C6.34993 20.6181 6.27972 20.5934 6.22124 20.55C6.16034 20.5065 6.11387 20.4457 6.08781 20.3755C6.06175 20.3053 6.05728 20.229 6.07499 20.1562L7.34249 14.6681C7.38921 14.4686 7.38054 14.2601 7.31743 14.0651C7.25431 13.8702 7.13915 13.6962 6.98436 13.5619L2.75624 9.87469C2.69932 9.82584 2.65835 9.76106 2.63863 9.68869C2.61891 9.61633 2.62134 9.53972 2.64561 9.46875C2.66824 9.39893 2.71086 9.33729 2.76819 9.29146C2.82551 9.24563 2.89503 9.21764 2.96811 9.21094L8.54155 8.72906C8.74537 8.71089 8.94037 8.63748 9.10556 8.51672C9.27075 8.39596 9.39988 8.23244 9.47905 8.04375L11.6559 2.85375C11.6853 2.7872 11.7333 2.73063 11.7942 2.69091C11.8552 2.65119 11.9263 2.63004 11.9991 2.63004C12.0718 2.63004 12.1429 2.65119 12.2039 2.69091C12.2648 2.73063 12.3128 2.7872 12.3422 2.85375L14.519 8.04375C14.5982 8.23244 14.7273 8.39596 14.8925 8.51672C15.0577 8.63748 15.2527 8.71089 15.4565 8.72906L21.03 9.21094C21.1031 9.21764 21.1726 9.24563 21.2299 9.29146C21.2872 9.33729 21.3299 9.39893 21.3525 9.46875C21.377 9.53953 21.3797 9.61603 21.3603 9.68838C21.3409 9.76073 21.3003 9.82562 21.2437 9.87469Z" fill="#9397BA"/>
</svg>
