<svg width="29" height="29" viewBox="0 0 29 29" fill="none" xmlns="http://www.w3.org/2000/svg">
<g clip-path="url(#clip0_6_118)">
<path d="M7.25 15.5357C7.82201 15.5357 8.28571 15.072 8.28571 14.5C8.28571 13.928 7.82201 13.4643 7.25 13.4643C6.67799 13.4643 6.21429 13.928 6.21429 14.5C6.21429 15.072 6.67799 15.5357 7.25 15.5357Z" stroke="#888CAD" stroke-linecap="round" stroke-linejoin="round"/>
<path d="M13.9821 15.5357C14.5541 15.5357 15.0179 15.072 15.0179 14.5C15.0179 13.928 14.5541 13.4643 13.9821 13.4643C13.4101 13.4643 12.9464 13.928 12.9464 14.5C12.9464 15.072 13.4101 15.5357 13.9821 15.5357Z" stroke="#888CAD" stroke-linecap="round" stroke-linejoin="round"/>
<path d="M20.7143 15.5357C21.2863 15.5357 21.75 15.072 21.75 14.5C21.75 13.928 21.2863 13.4643 20.7143 13.4643C20.1423 13.4643 19.6786 13.928 19.6786 14.5C19.6786 15.072 20.1423 15.5357 20.7143 15.5357Z" stroke="#888CAD" stroke-linecap="round" stroke-linejoin="round"/>
<path d="M14.5 1.03571C12.0645 1.03647 9.67481 1.69782 7.58545 2.94932C5.4961 4.20083 3.78532 5.99561 2.63534 8.14252C1.48536 10.2894 0.939249 12.7081 1.05516 15.1408C1.17108 17.5735 1.94468 19.9293 3.29357 21.9571L1.03571 27.9643L8.59643 26.5971C10.417 27.4868 12.4149 27.9541 14.4413 27.9641C16.4676 27.9741 18.47 27.5267 20.2994 26.6551C22.1287 25.7835 23.7377 24.5102 25.0064 22.9303C26.2752 21.3503 27.1709 19.5043 27.6269 17.5299C28.0829 15.5555 28.0874 13.5037 27.64 11.5273C27.1926 9.551 26.3049 7.70112 25.0431 6.11561C23.7813 4.53009 22.1778 3.24983 20.3523 2.37027C18.5268 1.4907 16.5264 1.03451 14.5 1.03571Z" stroke="#888CAD" stroke-linecap="round" stroke-linejoin="round"/>
<path d="M27.375 5.6875C27.375 8.27633 25.2763 10.375 22.6875 10.375C20.0987 10.375 18 8.27633 18 5.6875C18 3.09867 20.0987 1 22.6875 1C25.2763 1 27.375 3.09867 27.375 5.6875Z" fill="#0B95FF" stroke="#13141C" stroke-width="2"/>
</g>
<defs>
<clipPath id="clip0_6_118">
<rect width="29" height="29" fill="white"/>
</clipPath>
</defs>
</svg>
