<svg width="35" height="35" viewBox="0 0 35 35" fill="none" xmlns="http://www.w3.org/2000/svg">
<path d="M27.3438 14.1604V13.1323C27.3438 7.48999 22.9338 2.91666 17.5 2.91666C12.0662 2.91666 7.65625 7.48999 7.65625 13.1323V14.1604C7.65801 15.3877 7.30777 16.5897 6.64708 17.6239L5.03125 20.1396C3.55687 22.4364 4.68271 25.5587 7.24792 26.285C13.9506 28.1851 21.0494 28.1851 27.7521 26.285C30.3173 25.5587 31.4431 22.4364 29.9688 20.141L28.3529 17.6254C27.6917 16.5913 27.341 15.3893 27.3423 14.1619L27.3438 14.1604Z" stroke="#888CAD" stroke-width="1.5"/>
<path d="M10.9375 27.7083C11.8927 30.2575 14.4696 32.0833 17.5 32.0833C20.5304 32.0833 23.1073 30.2575 24.0625 27.7083" stroke="#888CAD" stroke-width="1.5" stroke-linecap="round"/>
<path d="M29.625 8.3125C29.625 10.9013 27.5263 13 24.9375 13C22.3487 13 20.25 10.9013 20.25 8.3125C20.25 5.72367 22.3487 3.625 24.9375 3.625C27.5263 3.625 29.625 5.72367 29.625 8.3125Z" fill="#0B95FF" stroke="#13141C" stroke-width="2"/>
</svg>
