<svg width="18" height="18" viewBox="0 0 18 18" fill="none" xmlns="http://www.w3.org/2000/svg">
<g clip-path="url(#clip0_6_129)">
<path d="M2.57142 7.71429C3.63654 7.71429 4.5 6.85084 4.5 5.78571C4.5 4.72059 3.63654 3.85714 2.57142 3.85714C1.5063 3.85714 0.642853 4.72059 0.642853 5.78571C0.642853 6.85084 1.5063 7.71429 2.57142 7.71429Z" stroke="#0B95FF" stroke-linecap="round" stroke-linejoin="round"/>
<path d="M2.57143 7.71429V17.3571M2.57143 0.642857V3.85714" stroke="#0B95FF" stroke-linecap="round" stroke-linejoin="round"/>
<path d="M15.4286 7.71429C16.4937 7.71429 17.3571 6.85084 17.3571 5.78571C17.3571 4.72059 16.4937 3.85714 15.4286 3.85714C14.3635 3.85714 13.5 4.72059 13.5 5.78571C13.5 6.85084 14.3635 7.71429 15.4286 7.71429Z" stroke="#0B95FF" stroke-linecap="round" stroke-linejoin="round"/>
<path d="M15.4286 3.85714V0.642857M15.4286 17.3571V7.71429" stroke="#0B95FF" stroke-linecap="round" stroke-linejoin="round"/>
<path d="M9 10.9286C10.0651 10.9286 10.9286 10.0651 10.9286 9C10.9286 7.93488 10.0651 7.07143 9 7.07143C7.93488 7.07143 7.07143 7.93488 7.07143 9C7.07143 10.0651 7.93488 10.9286 9 10.9286Z" stroke="#0B95FF" stroke-linecap="round" stroke-linejoin="round"/>
<path d="M9 0.642857V7.07143M9 10.9286V17.3571" stroke="#0B95FF" stroke-linecap="round" stroke-linejoin="round"/>
</g>
<defs>
<clipPath id="clip0_6_129">
<rect width="18" height="18" fill="white"/>
</clipPath>
</defs>
</svg>
